<?xml version="1.0"?>
<svg xmlns="http://www.w3.org/2000/svg" xmlns:xlink="http://www.w3.org/1999/xlink" version="1.1" id="Capa_1" x="0px" y="0px" width="512" height="512" viewBox="0 0 599.503 599.503" style="enable-background:new 0 0 599.503 599.503;" xml:space="preserve" class=""><g><g>
	<g>
		<path d="M8.318,537.591c4.938,8.553,12.004,15.75,20.437,20.818c9.014,5.416,19.374,8.277,29.96,8.277h482.071    c10.587,0,20.947-2.861,29.961-8.277c8.432-5.068,15.499-12.266,20.437-20.818s7.639-18.271,7.811-28.107    c0.184-10.514-2.518-20.918-7.812-30.086L350.147,61.913c-5.293-9.168-12.952-16.709-22.149-21.808    c-8.604-4.769-18.372-7.29-28.247-7.29s-19.643,2.521-28.247,7.29c-9.197,5.097-16.857,12.639-22.15,21.808L8.319,479.398    c-5.293,9.168-7.994,19.572-7.81,30.086C0.681,519.32,3.381,529.039,8.318,537.591z M45.419,500.818L286.454,83.333    c2.955-5.118,8.125-7.677,13.296-7.677c5.17,0,10.341,2.559,13.296,7.677l241.035,417.485    c5.909,10.236-1.478,23.029-13.297,23.029H58.716C46.896,523.847,39.51,511.054,45.419,500.818z" data-original="#000000" class="active-path" data-old_color="#000000" style="fill:#1694C6"/>
		<path d="M540.786,567.187H58.715c-10.679,0-21.128-2.887-30.218-8.349c-8.506-5.113-15.634-12.374-20.612-20.997    c-4.979-8.626-7.703-18.43-7.876-28.349c-0.186-10.605,2.538-21.098,7.877-30.345L248.92,61.664    c5.339-9.248,13.065-16.854,22.341-21.996c8.679-4.81,18.53-7.352,28.489-7.352s19.811,2.542,28.489,7.352    c9.277,5.143,17.002,12.748,22.34,21.995l241.035,417.485c5.34,9.246,8.064,19.739,7.879,30.345    c-0.174,9.919-2.897,19.722-7.878,28.349c-4.978,8.623-12.105,15.884-20.611,20.997    C561.915,564.3,551.465,567.187,540.786,567.187z M299.751,33.316c-9.79,0-19.474,2.499-28.005,7.227    c-9.118,5.053-16.711,12.529-21.959,21.621L8.752,479.648c-5.248,9.09-7.926,19.403-7.743,29.827    c0.17,9.75,2.848,19.387,7.743,27.866c4.894,8.477,11.9,15.614,20.261,20.64c8.934,5.368,19.205,8.206,29.703,8.206h482.071    c10.498,0,20.769-2.838,29.703-8.206c8.361-5.026,15.368-12.163,20.262-20.64c4.896-8.48,7.573-18.116,7.743-27.866    c0.183-10.424-2.496-20.737-7.744-29.827L349.715,62.163c-5.248-9.09-12.841-16.566-21.959-21.62    C319.225,35.815,309.541,33.316,299.751,33.316z M540.785,524.347H58.716c-5.731,0-10.864-2.963-13.729-7.926    c-2.866-4.963-2.866-10.89,0-15.854L286.021,83.083c2.866-4.964,7.998-7.927,13.729-7.927c5.731,0,10.864,2.963,13.729,7.927    l241.035,417.485c2.866,4.964,2.866,10.891,0,15.854C551.649,521.384,546.517,524.347,540.785,524.347z M299.75,76.156    c-5.37,0-10.179,2.776-12.863,7.427L45.852,501.068c-2.685,4.65-2.685,10.203,0,14.854c2.685,4.649,7.494,7.426,12.864,7.426    h482.069c5.37,0,10.179-2.776,12.863-7.426c2.686-4.65,2.686-10.203,0.001-14.854L312.614,83.583    C309.929,78.932,305.12,76.156,299.75,76.156z" data-original="#000000" class="active-path" data-old_color="#000000" style="fill:#1694C6"/>
	</g>
	<g>
		<path d="M239.735,440.976c0,33.094,26.923,60.016,60.016,60.016s60.016-26.922,60.016-60.016c0-14.932-5.482-28.605-14.538-39.119    c10.082-10.99,16.245-25.631,16.245-41.686V234.286c0-34.034-27.688-61.723-61.723-61.723s-61.723,27.689-61.723,61.723v125.885    c0,16.055,6.164,30.695,16.246,41.686C245.217,412.371,239.735,426.044,239.735,440.976z M299.751,458.152    c-9.486,0-17.176-7.689-17.176-17.176s7.69-17.176,17.176-17.176c9.486,0,17.176,7.689,17.176,17.176    S309.237,458.152,299.751,458.152z M280.868,234.286c0-10.429,8.454-18.882,18.883-18.882s18.883,8.454,18.883,18.882v125.885    c0,10.428-8.454,18.883-18.883,18.883s-18.883-8.455-18.883-18.883V234.286z" data-original="#000000" class="active-path" data-old_color="#000000" style="fill:#1694C6"/>
		<path d="M299.751,501.492c-33.369,0-60.516-27.147-60.516-60.516c0-14.315,5.101-28.186,14.372-39.108    c-10.372-11.468-16.079-26.257-16.079-41.696V234.286c0-34.31,27.913-62.223,62.223-62.223s62.223,27.913,62.223,62.223v125.885    c0,15.439-5.707,30.229-16.078,41.696c9.271,10.924,14.371,24.794,14.371,39.108C360.267,474.344,333.119,501.492,299.751,501.492    z M299.751,173.063c-33.758,0-61.223,27.464-61.223,61.223v125.885c0,15.336,5.723,30.021,16.114,41.348l0.3,0.327l-0.29,0.337    c-9.297,10.793-14.417,24.57-14.417,38.793c0,32.817,26.699,59.516,59.516,59.516c32.817,0,59.516-26.698,59.516-59.516    c0-14.222-5.12-27.999-14.417-38.793l-0.29-0.337l0.301-0.327c10.391-11.327,16.113-26.012,16.113-41.348V234.286    C360.974,200.528,333.509,173.063,299.751,173.063z M299.751,458.652c-9.747,0-17.676-7.93-17.676-17.676    s7.929-17.676,17.676-17.676c9.746,0,17.676,7.93,17.676,17.676S309.497,458.652,299.751,458.652z M299.751,424.3    c-9.195,0-16.676,7.48-16.676,16.676s7.48,16.676,16.676,16.676s16.676-7.48,16.676-16.676S308.946,424.3,299.751,424.3z     M299.751,379.554c-10.688,0-19.383-8.695-19.383-19.383V234.286c0-10.688,8.695-19.382,19.383-19.382    c10.688,0,19.383,8.695,19.383,19.382v125.885C319.134,370.859,310.438,379.554,299.751,379.554z M299.751,215.904    c-10.136,0-18.383,8.246-18.383,18.382v125.885c0,10.137,8.247,18.383,18.383,18.383c10.137,0,18.383-8.246,18.383-18.383V234.286    C318.134,224.15,309.888,215.904,299.751,215.904z" data-original="#000000" class="active-path" data-old_color="#000000" style="fill:#1694C6"/>
	</g>
</g></g> </svg>
